# xmcd
#
# Track frame offsets: 
#        150
#        16173
#        33621
#        52869
#        67092
#        82440
#        102138
#        119061
#        134559
#        152682
#        169155
#        185628
#        201576
#
# Disc length: 2899 seconds
#
# Revision: 0
# Processed by: cddbd v1.5.2PL0 Copyright (c) Steve Scherf et al.
# Submitted via: ExactAudioCopy v1.0b1
#
DISCID=c30b510d
DTITLE=Kimber Cleveland - Kimber Cleveland
DYEAR=2006
DGENRE=Pop
TTITLE0=Belle of the Ball
TTITLE1=Feels Like Yesterday
TTITLE2=You Lie
TTITLE3=Alien
TTITLE4=Relax
TTITLE5=In Your Hand
TTITLE6=No Waiting
TTITLE7=Broken
TTITLE8=Quietly
TTITLE9=I Believe You Know
TTITLE10=Easy
TTITLE11=Maybe You'll See Me
TTITLE12=Story of US
EXTD=
EXTT0=
EXTT1=
EXTT2=
EXTT3=
EXTT4=
EXTT5=
EXTT6=
EXTT7=
EXTT8=
EXTT9=
EXTT10=
EXTT11=
EXTT12=
PLAYORDER=
